<svg width="216" height="125" viewBox="0 0 216 125" fill="none" xmlns="http://www.w3.org/2000/svg">
<path d="M3.76 121V93H8.04L25.6 114.56H23.48V93H28.64V121H24.36L6.8 99.44H8.92V121H3.76ZM49.2628 121.4C47.0761 121.4 45.0628 121.04 43.2228 120.32C41.3828 119.6 39.7828 118.6 38.4228 117.32C37.0628 116.013 36.0095 114.493 35.2628 112.76C34.5161 111 34.1428 109.08 34.1428 107C34.1428 104.92 34.5161 103.013 35.2628 101.28C36.0095 99.52 37.0628 98 38.4228 96.72C39.7828 95.4133 41.3828 94.4 43.2228 93.68C45.0628 92.96 47.0628 92.6 49.2228 92.6C51.4095 92.6 53.4095 92.96 55.2228 93.68C57.0628 94.4 58.6628 95.4133 60.0228 96.72C61.3828 98 62.4361 99.52 63.1828 101.28C63.9295 103.013 64.3028 104.92 64.3028 107C64.3028 109.08 63.9295 111 63.1828 112.76C62.4361 114.52 61.3828 116.04 60.0228 117.32C58.6628 118.6 57.0628 119.6 55.2228 120.32C53.4095 121.04 51.4228 121.4 49.2628 121.4ZM49.2228 116.84C50.6361 116.84 51.9428 116.6 53.1428 116.12C54.3428 115.64 55.3828 114.96 56.2628 114.08C57.1428 113.173 57.8228 112.133 58.3028 110.96C58.8095 109.76 59.0628 108.44 59.0628 107C59.0628 105.56 58.8095 104.253 58.3028 103.08C57.8228 101.88 57.1428 100.84 56.2628 99.96C55.3828 99.0533 54.3428 98.36 53.1428 97.88C51.9428 97.4 50.6361 97.16 49.2228 97.16C47.8095 97.16 46.5028 97.4 45.3028 97.88C44.1295 98.36 43.0895 99.0533 42.1828 99.96C41.3028 100.84 40.6095 101.88 40.1028 103.08C39.6228 104.253 39.3828 105.56 39.3828 107C39.3828 108.413 39.6228 109.72 40.1028 110.92C40.6095 112.12 41.3028 113.173 42.1828 114.08C43.0628 114.96 44.1028 115.64 45.3028 116.12C46.5028 116.6 47.8095 116.84 49.2228 116.84ZM77.2353 121L64.9953 93H70.6353L81.5553 118.32H78.3153L89.3553 93H94.5553L82.3553 121H77.2353ZM97.51 121V93H102.71V121H97.51ZM141.018 93H146.218V121H141.018V93ZM126.538 121H121.338V93H126.538V121ZM141.418 109H126.098V104.56H141.418V109ZM158.521 104.64H172.441V108.92H158.521V104.64ZM158.921 116.64H174.721V121H153.721V93H174.161V97.36H158.921V116.64ZM180.518 121V93H184.798L197.038 113.44H194.798L206.838 93H211.118L211.158 121H206.238L206.198 100.72H207.238L196.998 117.8H194.678L184.278 100.72H185.478V121H180.518Z" fill="#EEEEEE"/>
<path d="M30 82L108 4L139.037 35.0366V4H155.78V51.7801L186 82" stroke="#EEEEEE" stroke-width="4.5"/>
</svg>
