<svg width="22" height="23" viewBox="0 0 22 23" fill="none" xmlns="http://www.w3.org/2000/svg">
<path d="M10.962 5.50977C14.0381 5.50977 16.5772 8.04883 16.5772 11.125C16.5772 14.25 14.0381 16.7402 10.962 16.7402C7.83692 16.7402 5.34668 14.25 5.34668 11.125C5.34668 8.04883 7.83692 5.50977 10.962 5.50977ZM10.962 14.7871C12.9639 14.7871 14.5752 13.1758 14.5752 11.125C14.5752 9.12305 12.9639 7.51172 10.962 7.51172C8.91114 7.51172 7.29981 9.12305 7.29981 11.125C7.29981 13.1758 8.95996 14.7871 10.962 14.7871ZM18.0909 5.31445C18.0909 6.04688 17.5049 6.63281 16.7725 6.63281C16.0401 6.63281 15.4541 6.04688 15.4541 5.31445C15.4541 4.58203 16.0401 3.99609 16.7725 3.99609C17.5049 3.99609 18.0909 4.58203 18.0909 5.31445ZM21.8018 6.63281C21.8995 8.43945 21.8995 13.8594 21.8018 15.666C21.7041 17.4238 21.3135 18.9375 20.044 20.2559C18.7745 21.5254 17.212 21.916 15.4541 22.0137C13.6475 22.1113 8.22754 22.1113 6.4209 22.0137C4.66309 21.916 3.14942 21.5254 1.83106 20.2559C0.561523 18.9375 0.170898 17.4238 0.073242 15.666C-0.024414 13.8594 -0.024414 8.43945 0.073242 6.63281C0.170898 4.875 0.561523 3.3125 1.83106 2.04297C3.14942 0.773438 4.66309 0.382812 6.4209 0.285156C8.22754 0.1875 13.6475 0.1875 15.4541 0.285156C17.212 0.382812 18.7745 0.773438 20.044 2.04297C21.3135 3.3125 21.7041 4.875 21.8018 6.63281ZM19.4581 17.5703C20.044 16.1543 19.8975 12.7363 19.8975 11.125C19.8975 9.5625 20.044 6.14453 19.4581 4.67969C19.0674 3.75195 18.335 2.9707 17.4073 2.62891C15.9424 2.04297 12.5245 2.18945 10.962 2.18945C9.35059 2.18945 5.93262 2.04297 4.51661 2.62891C3.54004 3.01953 2.80762 3.75195 2.417 4.67969C1.83106 6.14453 1.97754 9.5625 1.97754 11.125C1.97754 12.7363 1.83106 16.1543 2.417 17.5703C2.80762 18.5469 3.54004 19.2793 4.51661 19.6699C5.93262 20.2559 9.35059 20.1094 10.962 20.1094C12.5245 20.1094 15.9424 20.2559 17.4073 19.6699C18.335 19.2793 19.1163 18.5469 19.4581 17.5703Z" fill="white"/>
</svg>
