<svg width="81" height="48" viewBox="0 0 81 48" fill="none" xmlns="http://www.w3.org/2000/svg">
<path d="M1.41 44V33.5H3.015L9.6 41.585H8.805V33.5H10.74V44H9.135L2.55 35.915H3.345V44H1.41ZM18.4736 44.15C17.6536 44.15 16.8986 44.015 16.2086 43.745C15.5186 43.475 14.9186 43.1 14.4086 42.62C13.8986 42.13 13.5036 41.56 13.2236 40.91C12.9436 40.25 12.8036 39.53 12.8036 38.75C12.8036 37.97 12.9436 37.255 13.2236 36.605C13.5036 35.945 13.8986 35.375 14.4086 34.895C14.9186 34.405 15.5186 34.025 16.2086 33.755C16.8986 33.485 17.6486 33.35 18.4586 33.35C19.2786 33.35 20.0286 33.485 20.7086 33.755C21.3986 34.025 21.9986 34.405 22.5086 34.895C23.0186 35.375 23.4136 35.945 23.6936 36.605C23.9736 37.255 24.1136 37.97 24.1136 38.75C24.1136 39.53 23.9736 40.25 23.6936 40.91C23.4136 41.57 23.0186 42.14 22.5086 42.62C21.9986 43.1 21.3986 43.475 20.7086 43.745C20.0286 44.015 19.2836 44.15 18.4736 44.15ZM18.4586 42.44C18.9886 42.44 19.4786 42.35 19.9286 42.17C20.3786 41.99 20.7686 41.735 21.0986 41.405C21.4286 41.065 21.6836 40.675 21.8636 40.235C22.0536 39.785 22.1486 39.29 22.1486 38.75C22.1486 38.21 22.0536 37.72 21.8636 37.28C21.6836 36.83 21.4286 36.44 21.0986 36.11C20.7686 35.77 20.3786 35.51 19.9286 35.33C19.4786 35.15 18.9886 35.06 18.4586 35.06C17.9286 35.06 17.4386 35.15 16.9886 35.33C16.5486 35.51 16.1586 35.77 15.8186 36.11C15.4886 36.44 15.2286 36.83 15.0386 37.28C14.8586 37.72 14.7686 38.21 14.7686 38.75C14.7686 39.28 14.8586 39.77 15.0386 40.22C15.2286 40.67 15.4886 41.065 15.8186 41.405C16.1486 41.735 16.5386 41.99 16.9886 42.17C17.4386 42.35 17.9286 42.44 18.4586 42.44ZM28.9632 44L24.3732 33.5H26.4882L30.5832 42.995H29.3682L33.5082 33.5H35.4582L30.8832 44H28.9632ZM36.5663 44V33.5H38.5163V44H36.5663ZM52.8818 33.5H54.8318V44H52.8818V33.5ZM47.4518 44H45.5018V33.5H47.4518V44ZM53.0318 39.5H47.2868V37.835H53.0318V39.5ZM59.4454 37.865H64.6654V39.47H59.4454V37.865ZM59.5954 42.365H65.5204V44H57.6454V33.5H65.3104V35.135H59.5954V42.365ZM67.6942 44V33.5H69.2992L73.8892 41.165H73.0492L77.5642 33.5H79.1692L79.1842 44H77.3392L77.3242 36.395H77.7142L73.8742 42.8H73.0042L69.1042 36.395H69.5542V44H67.6942Z" fill="#222831"/>
<path d="M12 30L40 2L51.1414 13.1414V2H57.1518V19.1518L68 30" stroke="#222831" stroke-width="1.8"/>
</svg>
